HIERARCHY
ROOT Hips
{
	OFFSET -3.958830 18.904000 13.208200
	CHANNELS 6 Xposition Yposition Zposition Zrotation Yrotation Xrotation 
	JOINT LHipJoint
	{
		OFFSET 0.000000 0.000000 0.000000
		CHANNELS 3 Zrotation Yrotation Xrotation
		JOINT LeftUpLeg
		{
			OFFSET 1.800000 -1.400000 0.085000
			CHANNELS 3 Zrotation Yrotation Xrotation
			JOINT LeftLeg
			{
				OFFSET 2.215000 -6.000000 0.000000
				CHANNELS 3 Zrotation Yrotation Xrotation
				JOINT LeftFoot
				{
					OFFSET 2.500000 -6.900000 0.000000
					CHANNELS 3 Zrotation Yrotation Xrotation
					JOINT LeftToeBase
					{
						OFFSET 0.200000 -0.500000 1.950000
						CHANNELS 3 Zrotation Yrotation Xrotation
						End Site
						{
							OFFSET 0.000000 0.000000 0.000000
						}
					}
				}
			}
		}
	}
	JOINT RHipJoint
	{
		OFFSET 0.000000 0.000000 0.000000
		CHANNELS 3 Zrotation Yrotation Xrotation
		JOINT RightUpLeg
		{
			OFFSET -1.800000 -1.400000 0.085000
			CHANNELS 3 Zrotation Yrotation Xrotation
			JOINT RightLeg
			{
				OFFSET -2.215000 -6.000000 0.000000
				CHANNELS 3 Zrotation Yrotation Xrotation
				JOINT RightFoot
				{
					OFFSET -2.500000 -6.900000 0.000000
					CHANNELS 3 Zrotation Yrotation Xrotation
					JOINT RightToeBase
					{
						OFFSET -0.200000 -0.500000 1.950000
						CHANNELS 3 Zrotation Yrotation Xrotation
						End Site
						{
							OFFSET 0.000000 0.000000 0.000000
						}
					}
				}
			}
		}
	}
	JOINT LowerBack
	{
		OFFSET 0.000000 0.000000 0.000000
		CHANNELS 3 Zrotation Yrotation Xrotation
		JOINT Spine
		{
			OFFSET -0.087000 1.940000 -0.288900
			CHANNELS 3 Zrotation Yrotation Xrotation
			JOINT Spine1
			{
				OFFSET 0.000000 1.950000 0.060000
				CHANNELS 3 Zrotation Yrotation Xrotation
				JOINT Neck
				{
					OFFSET 0.000000 0.000000 0.000000
					CHANNELS 3 Zrotation Yrotation Xrotation
					JOINT Neck1
					{
						OFFSET 0.000000 1.600000 0.340000
						CHANNELS 3 Zrotation Yrotation Xrotation
						JOINT Head
						{
							OFFSET 0.000000 1.667000 -0.240000
							CHANNELS 3 Zrotation Yrotation Xrotation
							End Site
							{
								OFFSET 0.000000 0.000000 0.000000
							}
						}
					}
				}
				JOINT LeftShoulder
				{
					OFFSET 0.000000 0.000000 0.000000
					CHANNELS 3 Zrotation Yrotation Xrotation
					JOINT LeftArm
					{
						OFFSET 2.700000 1.550000 -0.730000
						CHANNELS 3 Zrotation Yrotation Xrotation
						JOINT LeftForeArm
						{
							OFFSET 5.450000 0.000000 0.000000
							CHANNELS 3 Zrotation Yrotation Xrotation
							JOINT LeftHand
							{
								OFFSET 3.450000 0.000000 0.000000
								CHANNELS 3 Zrotation Yrotation Xrotation
								JOINT LeftHandIndex1
								{
									OFFSET 0.750000 0.000000 0.000000
									CHANNELS 3 Zrotation Yrotation Xrotation
									End Site
									{
										OFFSET 0.000000 0.000000 0.000000
									}
								}
							}
						}
					}
				}
				JOINT RightShoulder
				{
					OFFSET 0.000000 0.000000 0.000000
					CHANNELS 3 Zrotation Yrotation Xrotation
					JOINT RightArm
					{
						OFFSET -2.700000 1.550000 -0.730000
						CHANNELS 3 Zrotation Yrotation Xrotation
						JOINT RightForeArm
						{
							OFFSET -5.450000 0.000000 0.000000
							CHANNELS 3 Zrotation Yrotation Xrotation
							JOINT RightHand
							{
								OFFSET -3.450000 0.000000 0.000000
								CHANNELS 3 Zrotation Yrotation Xrotation
								JOINT RightHandIndex1
								{
									OFFSET -0.750000 0.000000 0.000000
									CHANNELS 3 Zrotation Yrotation Xrotation
									End Site
									{
										OFFSET 0.000000 0.000000 0.000000
									}
								}
							}
						}
					}
				}
			}
		}
	}
}
MOTION
Frames: 8
Frame Time: 0.016667
0.664360 17.187340 0.809200 19.855595 -42.081609 -40.134917 -15.277299 13.265554 4.234033 0.508043 7.297937 -61.302308 23.377032 5.136358 15.667794 0.137262 4.455815 2.758849 0.617870 0.404820 0.493300 18.127328 -10.750052 1.821518 -18.310231 6.644373 7.810853 7.755709 -8.261054 31.746277 -1.007744 -6.533375 2.141126 0.039400 -0.278290 0.223270 -2.807836 -2.895737 -8.193865 -0.478559 10.502402 70.593560 -4.334399 15.123798 5.192394 4.574840 -14.765143 -14.682602 -27.260440 11.958442 34.397549 -6.808780 0.332450 -25.070070 -19.824948 -7.573544 6.765755 -42.856760 27.330645 -25.052283 -83.108129 -15.790453 -4.679827 -2.894497 3.296860 0.571420 -0.382450 0.428600 0.232140 10.324273 34.329826 7.985421 21.015410 30.700109 -11.058045 -138.476181 24.131923 -90.604804 2.249633 -1.666316 0.169970 0.039380 -0.334310 -0.012960 
0.665460 17.164010 0.858970 20.446115 -40.199811 -40.060274 -15.357221 13.098962 4.498026 2.187692 6.588288 -62.430404 19.489989 5.237174 20.173898 0.117170 4.622214 2.686039 0.617210 0.397810 0.501560 18.102163 -10.519507 1.716394 -19.704751 6.440314 8.715424 8.343523 -8.641772 30.623333 -1.018210 -6.566710 2.120335 0.029750 -0.295250 0.222210 -2.616271 -3.331291 -8.329280 -2.787925 11.012133 69.802649 -2.441781 14.436419 7.060558 4.452665 -14.683227 -15.920192 -28.177486 12.135745 34.994917 -7.105220 0.155520 -24.680290 -19.803278 -10.755093 8.404588 -42.688263 27.354037 -25.406012 -84.141714 -19.110780 -2.279065 -2.893928 3.323142 0.583150 -0.393430 0.438420 0.226080 11.217997 36.967675 8.937769 20.170339 28.697780 -13.481879 -137.802523 27.575181 -97.441522 2.301706 -1.609179 0.173530 0.031900 -0.337200 -0.018980 
0.679210 17.186320 0.888160 22.775056 -38.481637 -40.643522 -15.471175 13.066080 4.721837 4.520497 6.361146 -62.209944 13.505862 6.212795 24.283191 0.150127 4.891129 2.560188 0.645870 0.446610 0.522020 18.042412 -10.266714 1.506436 -21.746132 6.596402 8.066983 7.958741 -8.530133 30.346605 -0.997312 -6.443287 2.141632 0.017900 -0.344100 0.227820 -2.254919 -4.089049 -8.456803 -7.413844 13.762995 68.843513 0.804221 14.410814 7.719179 3.980788 -14.452542 -16.763231 -29.073879 12.104873 36.290493 -6.555350 -0.389660 -25.859500 -20.459777 -13.116620 9.298536 -42.747560 26.543326 -25.424840 -83.224752 -21.113208 -0.610102 -2.868751 3.360052 0.578690 -0.434210 0.483020 0.226650 13.427238 38.986520 10.093302 19.684160 26.090604 -15.235373 -137.793441 31.756691 -105.381107 2.380620 -1.581893 0.229880 0.009100 -0.366470 0.000500 
0.712540 17.232140 0.933000 24.393587 -38.047094 -40.898466 -15.526932 12.913073 5.014638 6.154656 5.717692 -62.638836 10.875534 6.862753 28.388259 0.182479 5.392978 2.352472 0.674470 0.477350 0.532560 18.037905 -10.118216 1.326553 -22.972869 7.296089 5.883770 7.737154 -8.527689 32.379204 -0.993538 -6.441350 2.090394 0.016630 -0.401910 0.238870 -2.117684 -4.332415 -8.575381 -9.901636 15.260665 68.790394 2.778861 13.899054 7.433695 3.491739 -14.501545 -17.527179 -30.670081 12.236782 37.198976 -5.429920 -1.350600 -28.076490 -21.418998 -15.152966 9.784782 -42.620991 25.285263 -25.056357 -81.487960 -22.565466 0.662411 -2.831368 3.398035 0.613100 -0.490060 0.522050 0.214450 16.021622 40.288874 11.214655 20.395142 23.921050 -16.596791 -137.842271 37.679885 -115.459901 2.448784 -1.561149 0.263130 -0.021580 -0.373790 0.000760 
0.740550 17.279520 0.987510 25.362275 -38.224775 -40.612587 -15.574162 12.623573 5.422723 7.988919 4.897450 -63.694163 8.471353 8.048587 35.083164 0.302788 6.415932 1.987701 0.695930 0.502670 0.567900 18.068487 -9.981500 1.146814 -23.424686 8.086111 2.466149 7.247018 -8.461223 35.773156 -0.996423 -6.471130 2.046687 0.008800 -0.448820 0.234620 -2.059492 -4.263435 -8.728378 -11.347957 16.288776 68.516715 4.075380 13.332248 6.891296 3.015706 -14.171509 -18.029184 -31.002811 12.166332 38.659100 -4.900670 -1.685240 -29.737100 -21.689543 -16.474347 9.963764 -42.978103 24.003825 -24.723217 -78.732889 -23.791677 1.758605 -2.794891 3.390861 0.634830 -0.533760 0.562500 0.206560 17.702107 40.485185 12.177581 22.950126 22.425790 -17.387260 -138.224459 42.410829 -124.038923 2.512412 -1.544280 0.286690 -0.029930 -0.399000 -0.000320 
0.793070 17.334500 1.053490 25.132001 -38.740719 -38.986402 -15.628977 12.224313 5.862396 9.210305 3.382520 -65.694239 8.009255 8.790279 41.408763 0.427660 7.365812 1.654170 0.710070 0.532750 0.576580 18.121489 -9.703035 1.118309 -23.089546 9.440508 -2.457386 7.942598 -9.052254 40.823947 -1.076944 -6.802801 1.899482 0.007680 -0.482720 0.244530 -2.070946 -4.083459 -8.942336 -11.612608 15.977638 68.124917 4.650865 11.957381 5.724858 2.827885 -13.726794 -18.335305 -30.994544 13.123094 40.040405 -5.216110 -0.972100 -32.130170 -21.514812 -17.626112 9.797180 -45.388838 21.457070 -24.727876 -73.128115 -24.527975 2.042486 -2.782438 3.364657 0.672280 -0.566970 0.607940 0.200060 18.168035 40.171081 12.751948 26.796151 21.583774 -17.823557 -138.803321 46.889021 -131.923079 2.535765 -1.523427 0.303480 -0.026150 -0.396400 -0.001920 
0.837840 17.377400 1.115850 25.053205 -38.390601 -37.346433 -15.771543 11.592412 6.548416 11.678753 1.646377 -69.379694 6.518244 10.589250 50.431300 0.661060 8.955072 1.124506 0.711050 0.532610 0.598680 18.159836 -9.200393 1.055442 -23.367200 10.315496 -6.785849 8.542575 -9.847320 44.597230 -1.165304 -7.141023 1.753839 -0.001540 -0.520280 0.250770 -1.989672 -4.052091 -9.309051 -12.410596 15.967661 67.657467 5.866570 10.631023 4.706665 2.649693 -13.038534 -18.615045 -30.783870 13.669870 42.209218 -5.632460 -0.325510 -34.133180 -21.110509 -19.009673 9.696723 -47.873650 18.550993 -24.380244 -66.922181 -25.228612 2.214668 -2.781654 3.318616 0.725840 -0.597090 0.646730 0.172540 18.368292 39.834660 13.222323 30.127578 19.420625 -18.986225 -138.788253 52.289206 -138.878885 2.534429 -1.524949 0.302190 -0.022670 -0.380960 -0.025510 
0.881530 17.402400 1.196860 24.195860 -39.186383 -35.965184 -15.822632 11.211330 6.931349 13.225420 0.173755 -70.893934 4.921831 12.349627 57.456288 0.919246 10.143750 0.738785 0.769460 0.597480 0.661790 18.209141 -8.932059 1.102179 -21.939618 10.804099 -10.093613 7.904805 -9.991796 47.829072 -1.281106 -7.331640 1.677980 0.011810 -0.607410 0.247640 -2.016666 -3.919506 -9.513531 -11.678124 14.910596 67.580462 6.136242 9.430153 3.547890 2.746850 -12.449161 -19.385315 -31.840135 15.234651 45.307915 -5.937350 0.533160 -35.792110 -20.793985 -20.677288 9.699958 -50.481499 16.068848 -24.373549 -60.071503 -24.375458 1.029179 -2.716773 3.289275 0.781120 -0.664900 0.719210 0.164910 18.212237 39.857879 13.951715 34.463881 17.141445 -20.419675 -137.607667 58.781842 -144.727662 2.549281 -1.551995 0.332530 -0.037640 -0.417040 -0.043110 
